#!OML:ASF H:\Terrain\Patient Classification 1\PLAYGROUND\JustinFriday\JustinFriday.ASF
:FULLY-SPECIFIED
:DEGREES
1550
root -14.4457 27.4458 -4.65544 315.331 -1.95741 2.04157
lowerback 39.5417 0.746793 4.60921
upperback 13.4494 2.86984 2.11882
thorax -4.11103 1.50745 -1.1828
lowerneck 3.36355 -3.10731 0.0623659
upperneck -7.4515 -3.59985 7.48009
head -2.84484 -2.04295 2.55902
rclavicle 6.95746e-015 2.3059e-014
rhumerus 33.5902 -33.9038 -38.5504
rradius 87.7323
rwrist 6.79739
rhand -27.4698 -1.13392
rfingers 7.12502
rthumb -0.873867 -31.1119
lclavicle 6.95746e-015 2.3059e-014
lhumerus 18.1326 6.1079 66.7158
lradius 118.18
lwrist -16.6591
lhand -45.245 -28.5976
lfingers 7.12502
lthumb -18.0194 0.587692
rfemur -37.1337 -0.782133 15.0089
rtibia 38.3764
rfoot 11.3325 -10.9156
rtoes 17.3455
lfemur -32.901 6.67255 -8.91181
ltibia 45.7492
lfoot 13.0152 -2.55143
ltoes 5.80328
1551
root -14.4454 27.4278 -4.63405 315.599 -2.72414 1.31209
lowerback 40.0765 0.330725 6.01842
upperback 12.3521 2.94976 1.84092
thorax -5.38425 1.53631 -2.26086
lowerneck 5.04529 -3.07091 1.20052
upperneck -7.03505 -3.48912 6.84152
head -3.05148 -2.01569 2.17547
rclavicle -3.77939e-014 -9.54166e-015
rhumerus 31.7058 -32.9727 -37.924
rradius 87.7983
rwrist 6.71998
rhand -22.4429 -2.61961
rfingers 7.12502
rthumb 3.98113 -32.5622
lclavicle -3.77939e-014 -9.54166e-015
lhumerus 18.9253 5.45614 65.8758
lradius 117.705
lwrist -15.6004
lhand -44.4526 -27.9565
lfingers 7.12502
lthumb -17.2569 1.29729
rfemur -37.5848 -0.833204 16.2122
rtibia 38.5475
rfoot 12.2832 -10.433
rtoes 15.2655
lfemur -33.3913 6.93681 -7.73811
ltibia 45.783
lfoot 12.7776 -3.3648
ltoes 2.51582
1552
root -14.4477 27.4212 -4.6347 315.876 -3.46298 0.585424
lowerback 40.0459 0.291092 6.6385
upperback 12.0546 3.19715 2.35661
thorax -5.67467 1.63092 -2.13034
lowerneck 3.38146 -3.49471 2.62097
upperneck -4.29653 -4.33444 3.97709
head -1.8836 -2.29631 0.920072
rclavicle -9.49197e-015 3.97569e-015
rhumerus 31.5912 -32.6569 -37.3635
rradius 87.9957
rwrist 5.60715
rhand -19.4932 -3.32423
rfingers 7.12502
rthumb 6.82904 -33.1941
lclavicle -9.49197e-015 3.97569e-015
lhumerus 20.8472 5.44027 66.407
lradius 116.385
lwrist -15.3441
lhand -43.6904 -26.814
lfingers 7.12502
lthumb -16.5231 2.5025
rfemur -37.8747 -0.19574 17.1879
rtibia 38.5705
rfoot 10.826 -11.7155
rtoes 19.5009
lfemur -33.9297 7.25554 -6.59753
ltibia 45.976
lfoot 12.4844 -4.19941
ltoes 0.18765
1553
root -14.4505 27.4259 -4.64698 315.73 -3.03968 0.972131
lowerback 40.1775 0.342392 6.08529
upperback 12.4623 3.03338 2.35149
thorax -5.30969 1.5612 -1.78399
lowerneck 4.05535 -2.34252 0.366963
upperneck -6.99971 -2.60148 6.92565
head -2.8717 -1.5388 2.29285
rclavicle 3.44643e-014 1.03368e-014
rhumerus 32.7729 -33.1706 -37.9334
rradius 88.1532
rwrist 4.88188
rhand -18.82 -3.65198
rfingers 7.12502
rthumb 7.47888 -33.4998
lclavicle 3.44643e-014 1.03368e-014
lhumerus 22.4664 6.6374 66.3032
lradius 116.509
lwrist -14.5014
lhand -42.4304 -24.8748
lfingers 7.12502
lthumb -15.3098 4.53849
rfemur -37.7053 -0.152708 16.5724
rtibia 38.463
rfoot 10.8836 -11.5354
rtoes 18.6344
lfemur -33.9178 7.1659 -7.23992
ltibia 46.2564
lfoot 12.111 -4.31674
ltoes -0.18151
1554
root -14.4517 27.4238 -4.65372 315.776 -2.96194 0.968911
lowerback 40.0259 0.422223 5.79239
upperback 13.0977 2.99688 2.64186
thorax -4.59633 1.55883 -1.29533
lowerneck 2.04867 -2.10832 -0.22518
upperneck -6.78229 -2.36863 7.0807
head -2.4275 -1.37329 2.39192
rclavicle 3.28989e-014 7.95139e-015
rhumerus 34.125 -33.8006 -38.199
rradius 87.8481
rwrist 5.66917
rhand -27.851 -2.38847
rfingers 7.12502
rthumb -1.242 -32.3646
lclavicle 3.28989e-014 7.95139e-015
lhumerus 25.1182 7.80434 66.7182
lradius 116.181
lwrist -13.6199
lhand -40.2701 -22.6183
lfingers 7.12502
lthumb -13.2281 6.942
rfemur -37.6924 -0.158919 16.551
rtibia 38.2711
rfoot 11.1438 -11.4322
rtoes 17.9225
lfemur -34.1524 7.03177 -7.28108
ltibia 46.6142
lfoot 11.7565 -4.26459
ltoes -0.553444
1555
root -14.4507 27.4133 -4.65453 316.178 -3.89838 0.0744469
lowerback 40.0227 0.12124 6.98098
upperback 13.1046 3.08676 2.85292
thorax -4.51274 1.62785 -1.70534
lowerneck -1.9354 -1.65079 3.88693
upperneck -2.09798 -2.25424 0.496793
head -0.358795 -1.15464 -0.488537
rclavicle -1.36167e-014 1.59028e-015
rhumerus 32.6437 -33.5283 -36.3044
rradius 87.8744
rwrist 4.75377
rhand -21.0028 -3.80318
rfingers 7.12502
rthumb 5.37165 -33.7151
lclavicle -1.36167e-014 1.59028e-015
lhumerus 27.3936 8.16652 66.8675
lradius 115.482
lwrist -12.2914
lhand -37.5808 -20.748
lfingers 7.12502
lthumb -10.6349 8.9629
rfemur -38.0961 0.086344 17.9804
rtibia 38.2915
rfoot 11.1547 -11.5886
rtoes 17.8444
lfemur -34.7332 7.30646 -5.83955
ltibia 46.8044
lfoot 11.7953 -4.37764
ltoes -1.03864
1556
root -14.4466 27.39 -4.64353 316.889 -5.74702 -1.64435
lowerback 39.7075 -0.252211 9.05573
upperback 12.9926 3.43182 3.53098
thorax -4.39402 1.82374 -2.15218
lowerneck -2.46254 -1.47888 3.84472
upperneck -1.54804 -2.05961 0.181964
head -0.105085 -1.04793 -0.585539
rclavicle 2.28602e-015 -1.59028e-014
rhumerus 33.1804 -33.5469 -36.0393
rradius 87.6444
rwrist 4.03273
rhand -26.8019 -3.26388
rfingers 7.12502
rthumb -0.228782 -33.2435
lclavicle 2.28602e-015 -1.59028e-014
lhumerus 29.1973 8.12624 67.4241
lradius 113.322
lwrist -14.5146
lhand -40.3339 -21.4189
lfingers 7.12502
lthumb -13.2897 8.13743
rfemur -38.6905 0.633981 20.7011
rtibia 38.2796
rfoot 10.9864 -11.9996
rtoes 18.3088
lfemur -35.6742 7.96722 -3.03929
ltibia 47.112
lfoot 12.1065 -4.71689
ltoes -2.00342
1557
root -14.4456 27.4103 -4.66262 316.095 -4.09931 0.143608
lowerback 40.1635 0.0979757 7.02888
upperback 13.1351 3.09551 3.00488
thorax -4.52586 1.62554 -1.57265
lowerneck -0.688415 -1.05746 3.37251
upperneck -2.87432 -1.3916 0.609994
head -0.781785 -0.734011 -0.360665
rclavicle 1.2921e-015 -2.38542e-015
rhumerus 34.0388 -33.5858 -36.9575
rradius 87.5221
rwrist 5.08683
rhand -20.4899 -4.03979
rfingers 7.12502
rthumb 5.86684 -33.9386
lclavicle 1.2921e-015 -2.38542e-015
lhumerus 30.4891 8.19417 67.3781
lradius 111.702
lwrist -15.2007
lhand -43.4257 -23.7805
lfingers 7.12502
lthumb -16.2683 5.55699
rfemur -37.9468 0.141133 18.1405
rtibia 38.3406
rfoot 11.0281 -11.4533
rtoes 18.5424
lfemur -34.7393 7.41598 -5.70392
ltibia 47.1566
lfoot 11.6655 -4.25915
ltoes -2.12794
1558
root -14.443 27.4147 -4.66672 315.97 -3.45613 0.751414
lowerback 39.7515 0.348833 6.03323
upperback 13.5759 2.97889 3.12566
thorax -3.99437 1.56098 -0.883948
lowerneck -0.309037 -0.879071 2.99731
upperneck -3.40784 -1.14054 0.349116
head -1.00644 -0.609585 -0.378694
rclavicle 7.62339e-014 3.57812e-014
rhumerus 35.5855 -33.946 -38.3066
rradius 88.0261
rwrist 6.69266
rhand -18.2041 -4.35216
rfingers 7.12502
rthumb 8.0734 -34.1779
lclavicle 7.62339e-014 3.57812e-014
lhumerus 31.8989 9.01739 67.4652
lradius 110.918
lwrist -14.9688
lhand -39.7855 -19.8576
lfingers 7.12502
lthumb -12.761 9.73243
rfemur -37.7533 -0.155054 17.2242
rtibia 38.3315
rfoot 11.0486 -11.2586
rtoes 19.0841
lfemur -34.6451 7.13342 -6.65732
ltibia 47.398
lfoot 11.4013 -3.90329
ltoes -0.550077
1559
root -14.4395 27.4058 -4.66161 316.32 -4.1519 0.00475196
lowerback 39.7379 0.0772118 6.99534
upperback 13.3899 3.02498 3.32133
thorax -4.13737 1.59541 -1.18492
lowerneck -0.725274 -0.663926 2.95166
upperneck -2.683 -0.881535 0.155653
head -0.70978 -0.469159 -0.433153
rclavicle -3.73715e-014 -1.27222e-014
rhumerus 34.7848 -33.4294 -36.2478
rradius 86.4804
rwrist 6.28575
rhand -21.8077 -4.19701
rfingers 7.12502
rthumb 4.59444 -34.1272
lclavicle -3.73715e-014 -1.27222e-014
lhumerus 32.783 9.69417 67.1788
lradius 110.476
lwrist -14.6658
lhand -37.4719 -17.25
lfingers 7.12502
lthumb -10.5298 12.4662
rfemur -38.0143 0.000642502 18.3338
rtibia 38.4229
rfoot 10.953 -11.4468
rtoes 19.1922
lfemur -35.1233 7.29621 -5.51512
ltibia 47.7028
lfoot 11.5973 -3.77668
ltoes 1.39537
1560
root -14.4379 27.3896 -4.65696 316.763 -5.39754 -1.30158
lowerback 39.632 -0.260375 8.52479
upperback 13.1819 3.21881 3.81577
thorax -4.23556 1.7036 -1.50436
lowerneck -1.18201 -0.215326 2.21969
upperneck -1.88749 -0.295407 0.656
head -0.37956 -0.163939 -0.161694
rclavicle -3.22031e-014 -3.49861e-014
rhumerus 35.7824 -33.6357 -37.8941
rradius 87.5561
rwrist 7.5769
rhand -25.916 -3.31093
rfingers 7.12502
rthumb 0.626827 -33.2898
lclavicle -3.22031e-014 -3.49861e-014
lhumerus 33.7633 10.1562 67.4081
lradius 109.554
lwrist -14.5063
lhand -36.1115 -16.0611
lfingers 7.12502
lthumb -9.2174 13.7174
rfemur -38.2366 0.475437 20.249
rtibia 38.3698
rfoot 11.0394 -11.9074
rtoes 19.2386
lfemur -35.8109 7.74728 -3.50467
ltibia 48.2812
lfoot 12.1093 -3.40196
ltoes 4.5075
1561
root -14.4369 27.371 -4.64897 317 -5.94484 -1.86731
lowerback 39.0868 -0.323738 9.06084
upperback 13.5248 3.26959 4.13598
thorax -3.65797 1.76369 -1.43627
lowerneck -1.08815 0.216723 2.03741
upperneck -2.41803 0.291625 0.687873
head -0.551684 0.125259 -0.123615
rclavicle -2.99171e-014 -4.77083e-015
rhumerus 36.7324 -33.8244 -38.7128
rradius 87.8649
rwrist 8.38853
rhand -23.6906 -4.02617
rfingers 7.12502
rthumb 2.77614 -33.9878
lclavicle -2.99171e-014 -4.77083e-015
lhumerus 35.3625 10.6938 67.6687
lradius 108.27
lwrist -14.5833
lhand -35.0581 -15.4321
lfingers 7.12502
lthumb -8.20088 14.3888
rfemur -38.3675 0.714238 21.0835
rtibia 38.432
rfoot 11.2384 -12.182
rtoes 19.6036
lfemur -36.2336 8.00201 -2.61592
ltibia 48.8764
lfoot 12.0397 -3.53394
ltoes 5.13605
1562
root -14.4312 27.3674 -4.64995 317.178 -6.29709 -2.1734
lowerback 39.0207 -0.418222 9.48439
upperback 13.3724 3.31729 4.21461
thorax -3.77152 1.78744 -1.58457
lowerneck 0.476822 0.409336 2.97247
upperneck -3.52156 0.585863 -0.316524
head -1.15177 0.259473 -0.598289
rclavicle -4.49253e-014 -4.45278e-014
rhumerus 37.0758 -33.4547 -39.2166
rradius 87.7699
rwrist 9.68947
rhand -22.1053 -4.77606
rfingers 7.12502
rthumb 4.30705 -34.7123
lclavicle -4.49253e-014 -4.45278e-014
lhumerus 36.1096 10.9449 67.4689
lradius 107.309
lwrist -14.652
lhand -33.9562 -14.6805
lfingers 7.12502
lthumb -7.13729 15.1791
rfemur -38.469 0.810509 21.5857
rtibia 38.6612
rfoot 11.2942 -12.2518
rtoes 19.4807
lfemur -36.3473 8.30499 -2.17403
ltibia 49.1077
lfoot 12.1811 -3.64756
ltoes 4.77374
1563
root -14.418 27.3746 -4.64496 316.99 -6.04604 -1.82107
lowerback 39.4495 -0.454944 9.23878
upperback 12.8072 3.27765 4.13049
thorax -4.55011 1.71457 -1.55859
lowerneck 2.38871 0.583631 3.23357
upperneck -3.77795 0.874634 -0.813616
head -1.55892 0.406737 -0.816977
rclavicle 1.19271e-015 2.06736e-014
rhumerus 35.9398 -32.8742 -38.5957
rradius 88.314
rwrist 9.60291
rhand -21.26 -5.23796
rfingers 7.12502
rthumb 5.12329 -35.156
lclavicle 1.19271e-015 2.06736e-014
lhumerus 35.9189 10.9007 67.4141
lradius 106.581
lwrist -14.7001
lhand -32.6776 -13.7294
lfingers 7.12502
lthumb -5.90299 16.1683
rfemur -38.3699 0.48514 21.18
rtibia 39.2552
rfoot 11.2511 -11.7678
rtoes 18.8217
lfemur -35.9387 8.40258 -2.74531
ltibia 49.0704
lfoot 12.0042 -4.09461
ltoes 1.56081
1564
root -14.4098 27.4072 -4.67044 316.119 -4.32636 0.00762747
lowerback 39.8806 -0.0478016 7.00673
upperback 13.0387 2.94234 3.75106
thorax -4.59647 1.51227 -0.718651
lowerneck 2.11997 0.910736 2.94764
upperneck -3.2489 1.28766 -0.873133
head -1.33504 0.622027 -0.78773
rclavicle 9.24349e-015 -7.95139e-015
rhumerus 36.5063 -32.6501 -38.7241
rradius 88.0751
rwrist 9.19884
rhand -21.3387 -5.01105
rfingers 7.12502
rthumb 5.04734 -34.9309
lclavicle 9.24349e-015 -7.95139e-015
lhumerus 37.4382 11.0085 67.9731
lradius 104.992
lwrist -15.1486
lhand -31.3902 -12.2789
lfingers 7.12502
lthumb -4.65997 17.6499
rfemur -37.5783 -0.175823 18.5336
rtibia 39.7235
rfoot 11.4438 -10.9087
rtoes 17.5519
lfemur -34.4721 7.48297 -5.50075
ltibia 48.5382
lfoot 11.4023 -3.82359
ltoes -1.30756
